<svg version="1.1" id="Layer_1" xmlns="http://www.w3.org/2000/svg" xmlns:xlink="http://www.w3.org/1999/xlink" x="0px" y="0px"
	 width="100%" viewBox="0 0 222 134" enable-background="new 0 0 222 134" xml:space="preserve">
<path fill="#000000" opacity="1.000000" stroke="none" 
	d="
M154.000000,135.000000 
	C102.702385,135.000000 51.904774,135.000000 1.053579,135.000000 
	C1.053579,90.400490 1.053579,45.800907 1.053579,1.100659 
	C74.880775,1.100659 148.761734,1.100659 222.821350,1.100659 
	C222.821350,45.666080 222.821350,90.332985 222.821350,135.000000 
	C200.134552,135.000000 177.317276,135.000000 154.000000,135.000000 
M82.510468,77.152893 
	C72.530907,77.100060 62.551315,77.023979 52.571850,77.038177 
	C51.766907,77.039322 50.962841,77.660561 50.039593,78.861656 
	C47.696388,95.700829 45.353180,112.539993 42.969784,129.667984 
	C45.945782,129.667984 48.334106,129.667984 50.844448,129.667984 
	C51.614658,123.013191 52.289436,116.656647 53.111298,110.319168 
	C53.484055,107.444778 54.718193,105.673462 58.242466,105.912628 
	C63.213375,106.249985 68.230080,105.848000 73.216614,106.038780 
	C77.762711,106.212723 78.769356,104.171837 77.487076,99.940903 
	C70.036682,99.553230 62.624008,99.167511 54.745895,98.757576 
	C55.609615,93.629250 56.471954,88.509132 57.316654,83.493736 
	C66.037994,83.493736 74.403130,83.493736 82.989098,83.493736 
	C82.989098,81.642494 82.989098,79.750801 82.510468,77.152893 
M117.962807,127.303123 
	C118.464966,122.809128 115.020378,123.837921 112.721016,123.790535 
	C105.630104,123.644394 98.534264,123.737221 90.706726,123.737221 
	C91.524445,118.635582 92.645805,114.017746 92.890213,109.353951 
	C93.081932,105.695343 94.615128,104.887833 97.839523,104.955956 
	C104.739845,105.101746 111.645386,105.000610 118.746597,105.000610 
	C118.746597,103.331001 118.746597,101.915627 118.746597,99.916763 
	C110.844467,99.521843 103.169067,99.138260 94.861244,98.723068 
	C95.241379,94.580948 95.494316,90.008575 96.206772,85.508957 
	C96.359406,84.544975 98.153503,83.171051 99.230865,83.134048 
	C105.377335,82.922943 111.770203,82.032776 117.623344,83.369720 
	C123.338448,84.675125 125.151131,82.978348 125.474091,77.235207 
	C114.293770,77.159363 103.113472,77.066879 91.933075,77.054047 
	C91.339134,77.053368 90.744415,77.725342 89.971779,78.877083 
	C89.110146,84.655670 88.284027,90.439819 87.379250,96.211639 
	C85.664055,107.153328 83.903763,118.087944 82.553558,129.775375 
	C93.454292,129.848770 104.355225,129.965073 115.255363,129.913025 
	C116.114998,129.908936 116.969055,128.734299 117.962807,127.303123 
M168.383743,77.010925 
	C164.850433,77.005013 161.232849,77.488152 157.800491,76.896538 
	C149.336227,75.437599 142.523376,78.687668 136.607132,84.016411 
	C128.725632,91.115257 126.637909,100.480888 126.935699,110.770996 
	C127.219475,120.576721 131.124130,125.917122 140.580521,129.232574 
	C151.044357,132.901260 161.292664,130.455383 171.558777,128.594330 
	C172.552750,128.414139 173.644821,126.383118 173.906631,125.056396 
	C174.443298,122.336594 174.342438,119.498413 174.692642,116.732841 
	C175.381393,111.293938 176.198837,105.871346 176.996643,100.203377 
	C170.536865,100.203377 164.422287,100.203377 158.300537,100.203377 
	C158.003891,101.884026 157.733307,103.417099 157.336258,105.666649 
	C161.234802,105.854836 164.927170,106.033066 169.083099,106.233681 
	C168.691025,108.680420 168.223022,110.859413 168.009216,113.063057 
	C167.060760,122.839027 167.112091,122.929642 157.963913,125.521339 
	C150.546356,127.622757 143.349426,125.111763 138.527847,120.410149 
	C133.854630,115.853195 132.986496,108.777145 134.887466,101.661270 
	C137.615952,91.447754 143.369904,83.952599 153.791260,82.445320 
	C160.816391,81.429237 168.257599,83.289841 175.881226,83.892723 
	C178.059006,79.536613 177.640732,78.749878 172.004120,77.970352 
	C171.057526,77.839455 170.156921,77.376122 168.383743,77.010925 
M203.989670,117.633797 
	C203.232025,121.618172 201.375809,123.891243 197.021683,125.295235 
	C191.835037,126.967667 188.334290,123.476242 183.985031,123.096832 
	C182.384705,122.957222 179.700653,123.072342 179.278702,123.935463 
	C178.134598,126.275879 179.245956,128.573517 182.057831,128.953476 
	C187.847000,129.735748 193.831665,131.316116 199.457169,130.542145 
	C208.033783,129.362152 213.503525,120.552765 210.701141,113.517769 
	C208.450760,107.868492 204.807999,103.065102 199.164795,99.878624 
	C193.533371,96.698776 190.622650,91.190277 192.389160,87.098106 
	C193.770630,83.897942 199.744614,81.341354 203.673660,82.307465 
	C206.750305,83.063980 209.828018,83.816162 213.623047,84.746170 
	C213.738922,82.381081 213.841995,80.276932 213.931595,78.448166 
	C210.676758,77.888390 208.123657,77.261223 205.537018,77.055199 
	C202.722977,76.831062 199.875931,76.930527 197.046570,77.008369 
	C190.832123,77.179375 185.389755,82.937393 184.899597,88.856026 
	C184.446243,94.330177 186.570938,98.192947 190.278107,101.895737 
	C195.054703,106.666679 199.411789,111.857643 203.989670,117.633797 
M54.894508,60.952435 
	C50.794140,58.534725 45.841084,57.443516 43.876194,52.056999 
	C41.353313,45.140804 44.192051,40.075829 48.554913,34.998814 
	C40.167274,37.414257 32.535645,41.019051 26.325680,47.197506 
	C22.036427,51.464989 22.507425,56.459824 27.950869,58.884888 
	C36.757095,62.808075 46.266743,63.166981 55.774193,62.968864 
	C55.753170,62.315994 55.732147,61.663120 54.894508,60.952435 
M89.485794,57.991352 
	C80.216362,59.531467 70.946938,61.071583 62.041477,62.551224 
	C87.020241,70.131432 131.510666,57.091251 136.775589,41.544502 
	C134.835281,42.331532 133.364899,42.847050 131.964798,43.510807 
	C127.505104,45.625065 123.241379,48.314350 118.592117,49.832947 
	C109.281448,52.874123 99.765388,55.286476 89.485794,57.991352 
M72.491089,26.962807 
	C85.350723,24.655230 98.210358,22.347651 110.337639,20.171488 
	C100.828285,15.436825 62.944172,22.507837 55.017170,31.903889 
	C61.173454,30.100428 66.414482,28.565090 72.491089,26.962807 
M137.736618,32.252995 
	C138.011215,34.731792 138.285797,37.210594 138.604980,40.091908 
	C140.677536,38.716339 142.154480,37.970417 143.345428,36.904850 
	C148.345795,32.430912 148.288086,27.606438 142.283676,25.075493 
	C136.207825,22.514442 129.434189,21.608854 122.966209,19.978115 
	C122.805481,20.534267 122.644760,21.090422 122.484032,21.646574 
	C125.212341,22.858597 128.179108,23.721992 130.602585,25.379669 
	C133.077774,27.072725 135.019638,29.545496 137.736618,32.252995 
M111.378693,70.737885 
	C121.549004,71.565659 126.000206,69.688202 127.766838,63.825607 
	C118.735794,59.671448 111.652893,60.788475 106.912201,67.481422 
	C108.176521,68.404465 109.451324,69.335159 111.378693,70.737885 
M7.867838,55.041782 
	C7.219250,55.537010 6.491035,55.957325 5.939356,56.543728 
	C4.924979,57.621956 4.014496,58.797924 3.060704,59.933147 
	C4.577215,60.620804 6.239725,62.098076 7.583156,61.849674 
	C11.795163,61.070869 15.938450,59.787289 19.985943,58.353645 
	C20.897985,58.030594 22.082924,55.943542 21.783760,55.308720 
	C21.292122,54.265465 19.626238,53.039646 18.568310,53.135559 
	C15.239683,53.437344 11.963589,54.318550 7.867838,55.041782 
M74.562546,18.989977 
	C77.397148,18.293791 80.231758,17.597605 83.558609,16.780523 
	C80.230370,11.550137 76.413872,12.693842 72.856903,13.746829 
	C71.727539,14.081161 70.965439,15.656081 70.035271,16.663296 
	C71.262833,17.440001 72.490395,18.216707 74.562546,18.989977 
M148.196579,25.758661 
	C152.669754,28.055330 156.866043,27.627186 161.001236,24.690189 
	C156.792313,20.567684 149.646881,20.923027 148.196579,25.758661 
z"/>
<path fill="#F69220" opacity="1.000000" stroke="none" 
	d="
M168.809402,77.038651 
	C170.156921,77.376122 171.057526,77.839455 172.004120,77.970352 
	C177.640732,78.749878 178.059006,79.536613 175.881226,83.892723 
	C168.257599,83.289841 160.816391,81.429237 153.791260,82.445320 
	C143.369904,83.952599 137.615952,91.447754 134.887466,101.661270 
	C132.986496,108.777145 133.854630,115.853195 138.527847,120.410149 
	C143.349426,125.111763 150.546356,127.622757 157.963913,125.521339 
	C167.112091,122.929642 167.060760,122.839027 168.009216,113.063057 
	C168.223022,110.859413 168.691025,108.680420 169.083099,106.233681 
	C164.927170,106.033066 161.234802,105.854836 157.336258,105.666649 
	C157.733307,103.417099 158.003891,101.884026 158.300537,100.203377 
	C164.422287,100.203377 170.536865,100.203377 176.996643,100.203377 
	C176.198837,105.871346 175.381393,111.293938 174.692642,116.732841 
	C174.342438,119.498413 174.443298,122.336594 173.906631,125.056396 
	C173.644821,126.383118 172.552750,128.414139 171.558777,128.594330 
	C161.292664,130.455383 151.044357,132.901260 140.580521,129.232574 
	C131.124130,125.917122 127.219475,120.576721 126.935699,110.770996 
	C126.637909,100.480888 128.725632,91.115257 136.607132,84.016411 
	C142.523376,78.687668 149.336227,75.437599 157.800491,76.896538 
	C161.232849,77.488152 164.850433,77.005013 168.809402,77.038651 
z"/>
<path fill="#0A4FA2" opacity="1.000000" stroke="none" 
	d="
M125.828323,78.017731 
	C125.151131,82.978348 123.338448,84.675125 117.623344,83.369720 
	C111.770203,82.032776 105.377335,82.922943 99.230865,83.134048 
	C98.153503,83.171051 96.359406,84.544975 96.206772,85.508957 
	C95.494316,90.008575 95.241379,94.580948 94.861244,98.723068 
	C103.169067,99.138260 110.844467,99.521843 118.746597,99.916763 
	C118.746597,101.915627 118.746597,103.331001 118.746597,105.000610 
	C111.645386,105.000610 104.739845,105.101746 97.839523,104.955956 
	C94.615128,104.887833 93.081932,105.695343 92.890213,109.353951 
	C92.645805,114.017746 91.524445,118.635582 90.706726,123.737221 
	C98.534264,123.737221 105.630104,123.644394 112.721016,123.790535 
	C115.020378,123.837921 118.464966,122.809128 117.522903,127.863022 
	C105.442726,128.623779 93.802467,128.824646 82.162201,129.025497 
	C83.903763,118.087944 85.664055,107.153328 87.379250,96.211639 
	C88.284027,90.439819 89.110146,84.655670 90.518219,78.462326 
	C102.652550,78.037621 114.240433,78.027672 125.828323,78.017731 
z"/>
<path fill="#0B50A3" opacity="1.000000" stroke="none" 
	d="
M82.989098,77.859100 
	C82.989098,79.750801 82.989098,81.642494 82.989098,83.493736 
	C74.403130,83.493736 66.037994,83.493736 57.316654,83.493736 
	C56.471954,88.509132 55.609615,93.629250 54.745895,98.757576 
	C62.624008,99.167511 70.036682,99.553230 77.487076,99.940903 
	C78.769356,104.171837 77.762711,106.212723 73.216614,106.038780 
	C68.230080,105.848000 63.213375,106.249985 58.242466,105.912628 
	C54.718193,105.673462 53.484055,107.444778 53.111298,110.319168 
	C52.289436,116.656647 51.614658,123.013191 50.844448,129.667984 
	C48.334106,129.667984 45.945782,129.667984 42.969784,129.667984 
	C45.353180,112.539993 47.696388,95.700829 50.556557,78.433090 
	C61.712048,77.956047 72.350571,77.907570 82.989098,77.859100 
z"/>
<path fill="#F69220" opacity="1.000000" stroke="none" 
	d="
M203.969604,117.250748 
	C199.411789,111.857643 195.054703,106.666679 190.278107,101.895737 
	C186.570938,98.192947 184.446243,94.330177 184.899597,88.856026 
	C185.389755,82.937393 190.832123,77.179375 197.046570,77.008369 
	C199.875931,76.930527 202.722977,76.831062 205.537018,77.055199 
	C208.123657,77.261223 210.676758,77.888390 213.931595,78.448166 
	C213.841995,80.276932 213.738922,82.381081 213.623047,84.746170 
	C209.828018,83.816162 206.750305,83.063980 203.673660,82.307465 
	C199.744614,81.341354 193.770630,83.897942 192.389160,87.098106 
	C190.622650,91.190277 193.533371,96.698776 199.164795,99.878624 
	C204.807999,103.065102 208.450760,107.868492 210.701141,113.517769 
	C213.503525,120.552765 208.033783,129.362152 199.457169,130.542145 
	C193.831665,131.316116 187.847000,129.735748 182.057831,128.953476 
	C179.245956,128.573517 178.134598,126.275879 179.278702,123.935463 
	C179.700653,123.072342 182.384705,122.957222 183.985031,123.096832 
	C188.334290,123.476242 191.835037,126.967667 197.021683,125.295235 
	C201.375809,123.891243 203.232025,121.618172 203.969604,117.250748 
z"/>
<path fill="#F6921F" opacity="1.000000" stroke="none" 
	d="
M55.302818,60.981342 
	C55.732147,61.663120 55.753170,62.315994 55.774193,62.968864 
	C46.266743,63.166981 36.757095,62.808075 27.950869,58.884888 
	C22.507425,56.459824 22.036427,51.464989 26.325680,47.197506 
	C32.535645,41.019051 40.167274,37.414257 48.554913,34.998814 
	C44.192051,40.075829 41.353313,45.140804 43.876194,52.056999 
	C45.841084,57.443516 50.794140,58.534725 55.302818,60.981342 
z"/>
<path fill="#0E52A3" opacity="1.000000" stroke="none" 
	d="
M89.909958,57.974892 
	C99.765388,55.286476 109.281448,52.874123 118.592117,49.832947 
	C123.241379,48.314350 127.505104,45.625065 131.964798,43.510807 
	C133.364899,42.847050 134.835281,42.331532 136.775589,41.544502 
	C131.510666,57.091251 87.020241,70.131432 62.041477,62.551224 
	C70.946938,61.071583 80.216362,59.531467 89.909958,57.974892 
z"/>
<path fill="#1053A4" opacity="1.000000" stroke="none" 
	d="
M72.073296,26.996279 
	C66.414482,28.565090 61.173454,30.100428 55.017170,31.903889 
	C62.944172,22.507837 100.828285,15.436825 110.337639,20.171488 
	C98.210358,22.347651 85.350723,24.655230 72.073296,26.996279 
z"/>
<path fill="#F69221" opacity="1.000000" stroke="none" 
	d="
M137.465790,31.964958 
	C135.019638,29.545496 133.077774,27.072725 130.602585,25.379669 
	C128.179108,23.721992 125.212341,22.858597 122.484032,21.646574 
	C122.644760,21.090422 122.805481,20.534267 122.966209,19.978115 
	C129.434189,21.608854 136.207825,22.514442 142.283676,25.075493 
	C148.288086,27.606438 148.345795,32.430912 143.345428,36.904850 
	C142.154480,37.970417 140.677536,38.716339 138.604980,40.091908 
	C138.285797,37.210594 138.011215,34.731792 137.465790,31.964958 
z"/>
<path fill="#0C51A2" opacity="1.000000" stroke="none" 
	d="
M111.052414,70.501869 
	C109.451324,69.335159 108.176521,68.404465 106.912201,67.481422 
	C111.652893,60.788475 118.735794,59.671448 127.766838,63.825607 
	C126.000206,69.688202 121.549004,71.565659 111.052414,70.501869 
z"/>
<path fill="#F69322" opacity="1.000000" stroke="none" 
	d="
M8.267498,55.008614 
	C11.963589,54.318550 15.239683,53.437344 18.568310,53.135559 
	C19.626238,53.039646 21.292122,54.265465 21.783760,55.308720 
	C22.082924,55.943542 20.897985,58.030594 19.985943,58.353645 
	C15.938450,59.787289 11.795163,61.070869 7.583156,61.849674 
	C6.239725,62.098076 4.577215,60.620804 3.060705,59.933151 
	C4.014496,58.797924 4.924979,57.621956 5.939356,56.543728 
	C6.491035,55.957325 7.219250,55.537010 8.267498,55.008614 
z"/>
<path fill="#0F53A4" opacity="1.000000" stroke="none" 
	d="
M74.140251,18.991695 
	C72.490395,18.216707 71.262833,17.440001 70.035271,16.663296 
	C70.965439,15.656081 71.727539,14.081161 72.856903,13.746829 
	C76.413872,12.693842 80.230370,11.550137 83.558609,16.780523 
	C80.231758,17.597605 77.397148,18.293791 74.140251,18.991695 
z"/>
<path fill="#F69323" opacity="1.000000" stroke="none" 
	d="
M147.948303,25.444378 
	C149.646881,20.923027 156.792313,20.567684 161.001236,24.690189 
	C156.866043,27.627186 152.669754,28.055330 147.948303,25.444378 
z"/>
<path fill="#3A71B4" opacity="1.000000" stroke="none" 
	d="
M82.357880,129.400436 
	C93.802467,128.824646 105.442726,128.623779 117.454346,128.263306 
	C116.969055,128.734299 116.114998,129.908936 115.255363,129.913025 
	C104.355225,129.965073 93.454292,129.848770 82.357880,129.400436 
z"/>
<path fill="#779DCB" opacity="1.000000" stroke="none" 
	d="
M125.651207,77.626465 
	C114.240433,78.027672 102.652550,78.037621 90.607361,78.065872 
	C90.744415,77.725342 91.339134,77.053368 91.933075,77.054047 
	C103.113472,77.066879 114.293770,77.159363 125.651207,77.626465 
z"/>
<path fill="#7CA0CD" opacity="1.000000" stroke="none" 
	d="
M82.749786,77.505997 
	C72.350571,77.907570 61.712048,77.956047 50.615944,77.999084 
	C50.962841,77.660561 51.766907,77.039322 52.571850,77.038177 
	C62.551315,77.023979 72.530907,77.100060 82.749786,77.505997 
z"/>
</svg>